<svg width="52" height="65" viewBox="0 0 52 65" fill="none" xmlns="http://www.w3.org/2000/svg">
<g clip-path="url(#clip0_2036_15)">
<path fill-rule="evenodd" clip-rule="evenodd" d="M26.1689 3.15647C26.1689 -0.405518 31.1094 -1.213 32.3786 2.08273L30.9815 2.69259C30.3403 1.02749 28.013 1.51573 28.013 3.31534L27.9128 18.6289L26.1689 18.629V3.15647Z" fill="#497174"/>
<path fill-rule="evenodd" clip-rule="evenodd" d="M33.0125 8.83829L32.0522 7.25195L31.1147 8.8006C31.0051 8.9646 30.9417 9.15935 30.9417 9.36819C30.9417 9.95226 31.4381 10.4257 32.0505 10.4257C32.6629 10.4257 33.1594 9.95226 33.1594 9.36819C33.1594 9.17511 33.1051 8.99412 33.0104 8.83829H33.0125Z" fill="#497174"/>
<path fill-rule="evenodd" clip-rule="evenodd" d="M3.54834 22.6206H50.1207L50.0384 36.2594L50.0259 36.2381C49.6631 35.6171 49.0518 35.181 48.3465 35.0399V24.3948H5.3225V30.1609H3.54834V22.6206Z" fill="#497174"/>
<path fill-rule="evenodd" clip-rule="evenodd" d="M42.1398 21.2901H11.9768V19.9595L42.1398 19.9595V21.2901Z" fill="#497174"/>
<path fill-rule="evenodd" clip-rule="evenodd" d="M18.1853 18.629H23.5079V17.2856L18.1853 17.2983V18.629ZM30.6049 18.629H35.9274V17.2984H30.6049V18.629Z" fill="#497174"/>
<path fill-rule="evenodd" clip-rule="evenodd" d="M22.4416 46.2329C22.9951 46.4494 23.4523 46.666 23.9336 46.9307V47.027H18.3506V46.9307C18.8319 46.666 19.2651 46.4494 19.8186 46.2329V39.3745C19.8186 37.7381 19.1688 36.7274 17.6768 36.7274C16.8586 36.7274 16.1367 37.0884 15.4389 37.8344V46.2329C15.9683 46.4494 16.4014 46.666 16.8827 46.9307V47.027H11.2998V46.9307C11.7811 46.666 12.2623 46.4494 12.8158 46.2329V32.083L11.2757 31.3851V31.2648C12.4789 30.8076 13.9469 30.3985 15.3667 30.1338V37.4012C16.3052 36.4387 17.6046 35.8852 18.9282 35.8852C21.2624 35.8852 22.4416 37.4253 22.4416 39.567V46.2329ZM7.42589 31.6741C6.94464 31.9388 6.27082 32.2275 5.69328 32.4442V46.1609C6.27082 46.3775 6.94464 46.6662 7.42589 46.931V47.0272H1.21729V46.931C1.72264 46.6662 2.37238 46.3775 2.94993 46.1609V32.4442C2.37238 32.2275 1.72264 31.9388 1.21729 31.6741V31.5778H7.42589V31.6741ZM34.3286 46.6412H32.7885V39.7587C32.7885 37.5448 31.5853 35.9084 28.481 35.9084C27.2537 35.9084 25.8579 36.1731 24.5825 36.7025C24.6547 37.8576 24.7509 38.8683 24.8954 40.0234H25.0397L27.4221 36.5581C27.759 36.3416 28.0478 36.2453 28.4328 36.2453C29.4676 36.2453 30.1655 37.1357 30.1655 39.2293V41.0582C25.7617 41.3951 23.9087 42.6705 23.9087 44.6678C23.9087 46.2802 25.0879 47.2668 26.8686 47.2668C28.3125 47.2668 29.3954 46.6412 30.1655 45.7748V47.0262H34.3286V46.6412ZM30.1655 41.4432V45.1732C29.4676 45.9673 28.7457 46.3524 28.0478 46.3524C27.2055 46.3524 26.5799 45.7507 26.5799 44.4753C26.5799 42.9352 27.5425 41.732 30.1655 41.4432ZM41.1399 45.8942C40.6586 46.6402 39.7201 47.2659 38.3003 47.2659C36.3751 47.2659 35.1719 46.2311 35.1719 44.1375V36.5572H33.5355V36.4128L35.3644 35.8353C36.0141 34.8246 36.7843 33.6936 37.6505 32.4903H37.7709V36.1481H41.0436V36.5572H37.7709V44.3782C37.7709 45.7017 38.4447 46.3514 39.5276 46.3514C40.057 46.3514 40.6345 46.1108 40.9955 45.7498L41.1399 45.8942ZM45.8802 47.2667C47.9257 47.2667 49.3455 46.3282 50.1637 44.9324L50.0915 44.8602C49.2493 45.4378 48.3829 45.7747 47.3 45.7747C45.0861 45.7747 43.4498 44.5234 43.3535 40.7933H50.1156V40.3602C50.1156 37.9056 48.3348 35.9083 45.808 35.9083C43.2813 35.9083 40.6342 37.8816 40.6342 41.6838C40.6342 45.0287 42.7037 47.2667 45.8802 47.2667ZM47.4926 40.3602H43.3535C43.3776 37.5687 44.2439 36.2452 45.5915 36.2452C46.8428 36.2452 47.4926 37.4244 47.4926 40.3602Z" fill="#497174"/>
<path fill-rule="evenodd" clip-rule="evenodd" d="M51.4514 60.9149C51.1411 60.7327 50.8126 60.5683 50.4111 60.386L47.4179 55.3486L48.9327 53.7425C49.5167 53.4869 50.1738 53.1219 50.6666 52.8117V52.7387H47.3997V52.8117C47.7282 53.1219 48.0749 53.414 48.513 53.7425L46.1221 56.316L45.1183 56.845V48.3784C44.8321 48.4309 44.5448 48.477 44.26 48.5227C43.4551 48.6518 42.6714 48.7776 41.9973 49.0337V49.125L43.1471 49.6543V60.386C42.8673 60.4956 42.6118 60.6046 42.3644 60.7254V60.6958H41.2511V55.3297C41.2511 53.7053 40.3567 52.5373 38.5864 52.5373C37.6009 52.5373 36.6518 52.9388 35.94 53.6324V52.738H32.8009V53.0301H33.9507V60.6958H32.8009V60.826C32.4976 60.6639 32.2069 60.5247 31.8503 60.3849V52.6101C30.7735 52.8108 29.6237 53.1211 28.7111 53.4679V53.5591L29.861 54.1249V60.3849C29.4412 60.5493 29.0944 60.7137 28.7111 60.9144V60.9871H32.8009L37.0351 60.9876V60.6958H35.94V54.0156C36.4875 53.4316 37.0168 53.1761 37.6556 53.1761C38.769 53.1761 39.2617 53.9426 39.2617 55.1837V60.6958H38.1119V60.9876H41.9973L46.2133 60.9882V60.9149C45.8666 60.7142 45.5563 60.5504 45.1183 60.386V57.1922L46.0308 56.6811L48.2574 60.4039C47.9289 60.5683 47.6186 60.7327 47.3266 60.9149V60.9882H51.4514V60.9149ZM25.1337 61.1705C26.9587 61.1705 28.6196 60.5129 28.6196 58.7063C28.6196 57.1475 27.3915 56.59 26.2386 56.0672C25.2187 55.6043 24.2576 55.1683 24.2576 54.0889C24.2576 53.304 24.8234 52.8478 25.8272 52.8478C26.831 52.8478 27.4698 53.1215 28.3093 53.7603H28.4006L28.4553 53.1581C27.488 52.72 26.8493 52.5557 25.8637 52.5557C24.0751 52.5557 22.5055 53.2858 22.5055 54.9649C22.5055 56.4088 23.6872 56.9333 24.8205 57.436C25.8646 57.8989 26.8675 58.344 26.8675 59.4729C26.8675 60.367 26.2652 60.9149 25.2979 60.9149C24.9329 60.9149 24.6409 60.8232 24.3123 60.6594L22.7245 58.2316H22.6332C22.542 58.9434 22.4507 59.8196 22.396 60.5498C23.126 61.0061 24.2941 61.1705 25.1337 61.1705Z" fill="#497174"/>
<path fill-rule="evenodd" clip-rule="evenodd" d="M13.8165 58.2913L13.7442 58.2191L11.5046 59.8306L12.7328 54.8146C12.7332 54.8128 12.7337 54.811 12.7341 54.8092L14.1141 53.9461L15.3964 61.0081C13.9515 62.2036 12.2538 62.9461 10.7368 62.9461L11.5314 64.467C14.3308 63.7608 20.2005 56.8073 20.2005 53.7107C20.2005 53.4029 20.1644 53.095 20.0922 52.8234L18.0874 52.5699V52.6604C18.9183 53.0407 19.1711 53.8013 19.1711 54.7067C19.1711 55.8656 18.5931 57.4772 16.8593 59.5052L15.9382 53.602C15.8299 52.8958 15.5228 52.4974 14.7282 52.4974C14.0044 52.943 13.3789 53.487 12.8515 54.1232C12.9451 52.9954 12.4254 52.4424 11.6492 52.4424C10.3849 52.4424 9.04839 53.7281 8.01896 55.883L8.2718 54.8146C8.66913 53.2392 8.12732 52.4424 7.18813 52.4424C5.96004 52.4424 4.6416 53.6919 3.61214 55.7925L4.04559 54.0722C4.28038 53.1486 3.82887 52.4967 2.88971 52.4967C1.71576 53.1305 0.758551 53.9635 0 54.9776L0.0541833 55.0862L2.31177 53.8548L0.541823 60.9897L2.40207 60.6816L3.35929 56.861C4.56936 54.3257 5.43627 53.7281 6.10452 53.7281C6.46572 53.7281 6.68245 54.0722 6.50184 54.7784L5.00281 60.9897L6.86305 60.6816L7.74805 56.9695C8.99421 54.3438 9.87922 53.7281 10.5474 53.7281C10.9267 53.7281 11.1434 54.0722 10.9628 54.7784L9.66249 60.0117C9.53607 60.5731 10.0237 60.9897 10.71 60.9897C11.5769 60.9897 13.2927 59.3234 13.8165 58.2913Z" fill="#497174"/>
<path d="M30.6046 51.008C31.3395 51.008 31.9352 50.4122 31.9352 49.6773C31.9352 48.9424 31.3395 48.3467 30.6046 48.3467C29.8697 48.3467 29.2739 48.9424 29.2739 49.6773C29.2739 50.4122 29.8697 51.008 30.6046 51.008Z" fill="#497174"/>
</g>
<defs>
<clipPath id="clip0_2036_15">
<rect width="52" height="64.8602" fill="white"/>
</clipPath>
</defs>
</svg>
